# xmcd
#
# Track frame offsets:
# 150
# 16160
# 34378
# 66038
# 82623
# 110897
# 136036
# 169888
# 196481
# 213801
# 252008
# 284948
#
# Disc length: 4186 seconds
#
#
# Revision: 0
# Processed by: cddbd v1.5.1PL0 Copyright (c) Steve Scherf et al.
# Submitted via: FreeRIP 2.942 
#
DISCID=a710580c
DTITLE=Eugene Chadbourne with NoahJohn - Country Protest Anew
DYEAR=2004
DGENRE=Country
TTITLE0=Coward
TTITLE1=Backwards Town
TTITLE2=Ballad of a Crystal Man
TTITLE3=Don't Burn the Flag, Let's Burn the Bush
TTITLE4=Family Tree
TTITLE5=Hot Buttered Rum
TTITLE6=Light From Carolina
TTITLE7=Lost Ones
TTITLE8=Mushroom Clouds
TTITLE9=Wind From Newport News
TTITLE10=Travelin' Soldier
TTITLE11=Waterfalls
EXTD=Madison-based singer/songwriter
EXTT0=
EXTT1=
EXTT2=
EXTT3=
EXTT4=
EXTT5=
EXTT6=
EXTT7=
EXTT8=
EXTT9=
EXTT10=
EXTT11=
PLAYORDER=
